<svg version="1.1" id="Layer_1" xmlns="http://www.w3.org/2000/svg" xmlns:xlink="http://www.w3.org/1999/xlink" x="0px" y="0px"
	 width="100%" viewBox="0 0 512 512" enable-background="new 0 0 512 512" xml:space="preserve">
<path fill="#000000" opacity="1.000000" stroke="none" 
	d="
M0.999999,298.000000 
	C1.000000,199.038681 1.000000,100.077347 1.000000,1.058011 
	C171.561310,1.058011 342.122620,1.058011 513.000000,1.058011 
	C513.000000,99.689087 513.000000,198.378510 512.731018,297.871674 
	C509.268250,292.910309 506.377106,286.950897 502.824585,281.416046 
	C491.575867,263.890381 477.493530,248.989014 461.424896,235.680099 
	C447.245819,223.936249 432.006470,224.645081 415.487640,229.087006 
	C406.850372,231.555359 398.598816,234.094650 390.593750,236.558105 
	C394.044830,228.154297 397.535919,219.653107 401.348999,210.974380 
	C405.883850,201.188492 410.096741,191.580154 413.412354,184.018204 
	C424.258392,180.959137 433.952362,179.559006 442.396545,175.535751 
	C455.601532,169.244232 464.116119,157.617676 471.019806,144.944931 
	C478.935303,130.414780 483.690857,114.773491 485.783539,98.483238 
	C486.686554,91.453354 485.410156,84.143494 485.065613,76.569901 
	C484.335022,70.333397 481.558502,65.804588 475.710999,64.414261 
	C469.512878,62.940578 465.190247,66.881477 461.465851,71.131844 
	C456.182465,77.161407 451.326447,83.573174 445.918182,89.483383 
	C441.035767,94.818924 434.012970,96.349251 428.175934,93.610634 
	C421.603394,90.526917 418.069275,85.202805 418.015289,77.839256 
	C417.950592,69.018929 417.982544,60.197727 418.006714,51.376991 
	C418.019806,46.602005 416.146851,42.061485 411.861572,40.813599 
	C408.214783,39.751644 403.031647,40.144073 399.824097,42.061192 
	C386.425201,50.069565 379.014160,63.271053 373.150726,77.043533 
	C368.628998,87.664543 365.767487,98.992363 362.090118,110.441727 
	C362.004639,111.876221 362.202332,112.928688 361.957245,113.865303 
	C359.461212,123.404877 360.460449,133.166016 363.405609,142.006149 
	C366.415375,151.040359 372.259735,159.130203 377.146332,168.156403 
	C374.717010,173.965668 371.786865,180.972427 368.543091,188.146759 
	C365.122650,195.523972 362.015839,202.733597 358.551575,209.962997 
	C355.477631,208.270508 352.761108,206.558258 350.045227,204.447662 
	C350.353027,198.030579 351.696899,191.842636 350.747925,186.028946 
	C348.868469,174.514343 336.332214,166.447250 324.666718,174.238327 
	C318.723022,178.207977 315.591248,184.204529 313.536072,191.019058 
	C296.752869,187.133972 280.307007,183.797775 263.353516,183.985123 
	C255.678696,184.069931 247.999420,183.878723 240.327637,184.053238 
	C236.741119,184.134827 233.126877,184.567963 229.595993,185.223206 
	C219.729767,187.054138 209.900497,189.084137 199.998627,190.665741 
	C198.641907,187.252441 197.589859,184.072220 195.993805,181.193619 
	C192.552139,174.986237 183.816528,170.171051 178.275055,171.110016 
	C170.309952,172.459671 163.947586,178.408905 163.152527,186.792038 
	C162.589264,192.731110 163.629669,198.822250 163.640228,205.001312 
	C160.580582,206.751984 157.834915,208.346893 155.044708,209.569824 
	C151.717880,202.126877 148.435623,195.055923 145.080307,187.609314 
	C142.061508,180.405258 139.115784,173.576828 136.148438,166.698334 
	C143.144623,158.397263 149.079956,149.583130 151.450439,138.425125 
	C153.483917,128.853241 152.836929,119.524864 151.792755,109.662598 
	C151.354355,107.553223 150.935379,105.845055 150.576309,104.124390 
	C147.734467,90.506920 142.468201,77.718895 135.222534,66.026672 
	C130.243774,57.992504 123.571266,50.938000 117.183174,43.872967 
	C113.256927,39.530647 107.392365,38.429008 102.247307,40.603706 
	C97.034508,42.807041 95.769661,48.112869 95.941521,53.732899 
	C96.175385,61.380230 96.001984,69.040085 95.999054,76.694572 
	C95.995956,84.797394 92.088776,91.221001 85.524719,93.781273 
	C78.090584,96.680901 72.058273,93.895058 67.138763,88.529327 
	C62.064087,82.994354 57.561928,76.939003 52.638447,71.259407 
	C48.930080,66.981544 44.720978,63.068516 38.433502,64.313080 
	C33.067425,65.375267 29.500689,70.467194 28.455963,77.225174 
	C28.395397,85.527100 28.184177,93.649345 29.088219,101.645500 
	C31.347027,121.624466 38.524784,139.903381 50.090378,156.310379 
	C61.128468,171.969070 76.231392,180.951645 95.589867,181.904785 
	C98.638115,182.054871 100.161125,182.850998 101.373314,185.663742 
	C105.066841,194.234207 109.082642,202.665802 112.991302,211.519989 
	C116.528915,220.142517 120.048210,228.396500 123.462173,236.403412 
	C115.061737,234.000916 106.594734,231.579361 97.743721,229.004974 
	C93.388359,228.157150 89.405754,227.520386 85.447853,226.755768 
	C75.389435,224.812561 65.497612,225.880966 57.563412,232.255875 
	C47.505478,240.337112 38.216759,249.436249 29.056087,258.558136 
	C18.001289,269.566162 9.179247,282.241577 3.023091,296.678833 
	C2.760442,297.294769 1.692695,297.567413 0.999999,298.000000 
z"/>
<path fill="#000000" opacity="1.000000" stroke="none" 
	d="
M513.000000,318.000000 
	C513.000000,382.968475 513.000000,447.936920 513.000000,512.952698 
	C342.447662,512.952698 171.895325,512.952698 1.000000,512.952698 
	C1.000000,448.312836 1.000000,383.625092 1.238795,318.136902 
	C12.368061,326.563843 14.477077,326.680298 26.404329,318.157410 
	C28.926571,316.355103 31.266743,314.234863 33.434895,312.011505 
	C41.298706,303.947540 48.842110,295.559692 56.915298,287.714844 
	C63.625492,281.194458 71.382179,276.154633 81.457047,274.907501 
	C90.256897,276.017059 98.596481,277.052795 106.964066,278.491760 
	C106.714836,280.944763 106.437622,282.994507 106.086258,285.491699 
	C105.964775,293.945465 105.917442,301.951813 105.454422,309.972778 
	C96.429642,308.386993 87.797798,307.501221 78.697998,309.101929 
	C74.201118,310.864319 69.355873,311.846222 66.127464,314.674011 
	C58.341530,321.493744 51.133526,329.008575 44.017521,336.549835 
	C32.621353,348.627075 23.824074,362.566406 17.288980,377.733459 
	C14.727603,383.678070 13.630169,390.525970 13.240276,397.044678 
	C12.945459,401.973816 14.843594,407.003906 20.078259,409.601135 
	C25.279367,412.181641 30.368259,411.650757 34.920013,408.435333 
	C38.390308,405.983856 41.681496,403.099030 44.475437,399.902679 
	C53.962044,389.049683 63.128830,377.917816 72.546379,367.003418 
	C77.668915,361.066711 84.574913,358.295380 92.511078,356.911560 
	C96.661018,356.658417 100.448494,355.790161 104.122955,356.132996 
	C110.083084,356.689087 115.969109,358.039215 122.033707,359.375793 
	C124.059097,362.800354 125.937187,365.903290 127.504189,369.142883 
	C120.024765,372.929413 114.173622,378.033173 109.618240,385.057800 
	C104.763527,391.740326 99.958755,398.114471 95.739677,404.855225 
	C85.781693,420.764923 77.359283,437.452240 75.233185,456.380463 
	C74.566299,462.317627 75.785797,468.636810 81.178741,473.055237 
	C88.851112,479.341156 97.597260,475.626190 102.764084,468.392181 
	C108.221947,460.750641 113.033005,452.642975 118.038399,444.683502 
	C124.231987,434.834534 130.580170,425.131653 140.435425,417.910492 
	C149.853714,412.415070 159.922806,411.887726 170.446274,411.902039 
	C174.934906,414.200470 179.054947,416.442047 183.194366,418.647247 
	C207.252548,431.463806 232.951523,437.532135 260.162750,436.932556 
	C267.004974,436.781769 273.831329,435.727997 280.656067,435.005554 
	C295.790497,433.403412 310.027344,428.768707 323.624084,422.064117 
	C330.417877,418.714172 337.152496,415.244141 344.382141,411.904205 
	C355.021576,411.664551 364.880646,412.840424 374.049683,418.367126 
	C379.150818,423.870453 384.765717,428.586060 388.897522,434.362488 
	C396.728119,445.310089 403.647766,456.905945 411.065887,468.153290 
	C415.079956,474.239471 422.173737,477.709930 427.914429,475.828583 
	C434.101440,473.800934 438.034363,469.290039 437.952942,462.440613 
	C437.882538,456.517059 438.413116,450.225098 436.653107,444.746490 
	C429.606873,422.813080 418.902893,402.707031 403.942169,384.612274 
	C399.096802,377.852386 393.599945,372.315430 386.201813,368.657135 
	C388.195679,365.223267 390.163483,362.132416 392.541809,359.025452 
	C402.545288,357.535339 412.022369,354.516205 422.298096,356.909576 
	C427.020660,358.709503 431.865387,359.699615 435.572784,362.306946 
	C447.136658,370.439545 455.148254,382.039764 464.084534,392.762177 
	C469.045105,398.714203 474.528259,404.567657 480.813263,408.991791 
	C488.292053,414.256287 497.132172,410.519348 499.927582,401.896057 
	C502.779846,393.097321 500.010712,384.879730 496.436615,376.954865 
	C486.396515,354.693085 471.402618,336.066315 453.860413,319.311798 
	C448.446228,314.140747 442.427032,310.314789 434.485962,309.089050 
	C425.415405,309.332245 416.775482,309.647736 408.080109,309.519104 
	C407.962494,301.061401 407.900330,293.047852 407.903961,284.639771 
	C407.666626,282.193176 407.363495,280.141083 407.467499,278.051392 
	C416.250061,276.953766 424.625458,275.893707 433.397522,274.903931 
	C436.692200,275.928955 439.674896,276.684174 442.473602,277.872711 
	C455.208984,283.281158 463.252258,294.302856 472.849792,303.468933 
	C479.114410,309.451935 485.106171,315.789917 491.848877,321.182861 
	C498.038452,326.133331 504.159424,325.133087 509.797791,319.764282 
	C510.651306,318.951569 511.922180,318.577148 513.000000,318.000000 
z"/>
<path fill="#FF9838" opacity="1.000000" stroke="none" 
	d="
M513.000000,317.531616 
	C511.922180,318.577148 510.651306,318.951569 509.797791,319.764282 
	C504.159424,325.133087 498.038452,326.133331 491.848877,321.182861 
	C485.106171,315.789917 479.114410,309.451935 472.849792,303.468933 
	C463.252258,294.302856 455.208984,283.281158 442.473602,277.872711 
	C439.674896,276.684174 436.692200,275.928955 433.401489,274.492432 
	C432.212524,270.117371 432.001190,265.982422 430.511353,262.375549 
	C425.893188,251.195145 420.788940,240.215530 415.873383,229.157974 
	C432.006470,224.645081 447.245819,223.936249 461.424896,235.680099 
	C477.493530,248.989014 491.575867,263.890381 502.824585,281.416046 
	C506.377106,286.950897 509.268250,292.910309 512.731018,298.337708 
	C513.000000,304.354401 513.000000,310.708801 513.000000,317.531616 
z"/>
<path fill="#FF9838" opacity="1.000000" stroke="none" 
	d="
M80.996780,274.833710 
	C71.382179,276.154633 63.625492,281.194458 56.915298,287.714844 
	C48.842110,295.559692 41.298706,303.947540 33.434895,312.011505 
	C31.266743,314.234863 28.926571,316.355103 26.404329,318.157410 
	C14.477077,326.680298 12.368061,326.563843 1.238795,317.668243 
	C1.000000,311.645599 1.000000,305.291199 0.999999,298.468384 
	C1.692695,297.567413 2.760442,297.294769 3.023091,296.678833 
	C9.179247,282.241577 18.001289,269.566162 29.056087,258.558136 
	C38.216759,249.436249 47.505478,240.337112 57.563412,232.255875 
	C65.497612,225.880966 75.389435,224.812561 85.447853,226.755768 
	C89.405754,227.520386 93.388359,228.157150 97.648651,229.345551 
	C96.856239,231.873856 95.800362,233.922775 94.689354,235.941345 
	C87.970810,248.148102 82.258980,260.706940 80.996780,274.833710 
z"/>
<path fill="#FFAA5C" opacity="1.000000" stroke="none" 
	d="
M106.160408,285.044281 
	C106.437622,282.994507 106.714836,280.944763 107.244743,278.251953 
	C107.923325,276.712585 108.531067,275.858124 108.748611,274.913757 
	C114.848808,248.432938 130.036697,228.369980 152.169464,213.156662 
	C153.330688,212.358490 154.124435,211.025696 155.089264,209.941788 
	C157.834915,208.346893 160.580582,206.751984 163.964615,205.134155 
	C165.703995,206.751343 166.748413,208.432953 167.916016,210.024200 
	C172.320953,216.027359 177.928452,220.007904 185.700012,218.595383 
	C193.432907,217.189911 197.773254,211.739792 199.275192,204.381729 
	C200.157349,200.059906 199.836441,195.492508 200.056671,191.035553 
	C209.900497,189.084137 219.729767,187.054138 229.595993,185.223206 
	C233.126877,184.567963 236.741119,184.134827 240.327637,184.053238 
	C247.999420,183.878723 255.678696,184.069931 263.353516,183.985123 
	C280.307007,183.797775 296.752869,187.133972 313.577637,191.479706 
	C314.006531,194.933533 313.785645,197.925400 314.003998,200.884857 
	C314.658142,209.751480 320.121826,216.714005 327.612061,218.505295 
	C334.564209,220.167862 341.986023,216.472794 346.798889,209.039993 
	C347.756317,207.561401 348.956390,206.239914 350.044586,204.846008 
	C352.761108,206.558258 355.477631,208.270508 358.655273,210.290253 
	C360.205017,211.591736 361.196198,212.726364 362.396820,213.558914 
	C384.026672,228.558060 398.890289,248.296432 405.101227,274.166931 
	C405.433594,275.551270 406.392853,276.785095 407.060333,278.088959 
	C407.363495,280.141083 407.666626,282.193176 407.701324,284.942261 
	C405.262970,293.816406 403.669586,302.201111 400.815277,310.131958 
	C392.198059,334.075470 378.166626,354.386353 358.669922,370.889038 
	C321.661591,402.214294 278.983887,413.897888 231.394699,406.434235 
	C194.966980,400.721130 164.409439,383.583618 140.026901,355.628021 
	C124.159172,337.435059 113.487289,316.716583 108.254868,293.166321 
	C107.648796,290.438507 106.862930,287.750671 106.160408,285.044281 
M285.599457,239.661118 
	C283.760925,247.216537 278.269592,250.983795 271.318054,252.832886 
	C262.505524,255.176971 253.523468,255.269653 244.626373,253.297348 
	C232.997314,250.719421 228.680191,245.502808 228.004501,233.702560 
	C227.749771,229.253983 225.583603,226.484680 221.093903,225.982391 
	C216.624573,225.482376 213.503372,227.845444 212.867706,232.733521 
	C211.667023,241.966385 214.301010,250.183624 220.531006,257.143372 
	C227.611755,265.053528 236.967178,268.312408 247.128021,269.418762 
	C261.077637,270.937622 274.827301,270.455383 287.164154,262.557526 
	C297.519867,255.928024 303.563538,242.336136 301.097137,232.074005 
	C300.020172,227.593262 297.164124,225.544174 292.748199,226.007019 
	C288.524506,226.449692 286.303894,229.132156 286.020325,233.360016 
	C285.897919,235.185608 285.866608,237.017303 285.599457,239.661118 
z"/>
<path fill="#FFAA5C" opacity="1.000000" stroke="none" 
	d="
M28.812960,76.988106 
	C29.500689,70.467194 33.067425,65.375267 38.433502,64.313080 
	C44.720978,63.068516 48.930080,66.981544 52.638447,71.259407 
	C57.561928,76.939003 62.064087,82.994354 67.138763,88.529327 
	C72.058273,93.895058 78.090584,96.680901 85.524719,93.781273 
	C92.088776,91.221001 95.995956,84.797394 95.999054,76.694572 
	C96.001984,69.040085 96.175385,61.380230 95.941521,53.732899 
	C95.769661,48.112869 97.034508,42.807041 102.247307,40.603706 
	C107.392365,38.429008 113.256927,39.530647 117.183174,43.872967 
	C123.571266,50.938000 130.243774,57.992504 135.222534,66.026672 
	C142.468201,77.718895 147.734467,90.506920 150.576309,104.124390 
	C150.935379,105.845055 151.354355,107.553223 151.565720,109.925629 
	C150.973297,111.485016 150.422958,112.348885 150.169083,113.292511 
	C146.985458,125.125885 140.361496,134.526413 130.584854,141.901337 
	C108.377892,158.652924 78.363266,156.712357 58.717808,137.265869 
	C44.786118,123.475296 37.342133,106.281593 32.158314,87.825676 
	C31.136301,84.186996 29.932775,80.599312 28.812960,76.988106 
z"/>
<path fill="#FFAA5C" opacity="1.000000" stroke="none" 
	d="
M362.167816,110.005920 
	C365.767487,98.992363 368.628998,87.664543 373.150726,77.043533 
	C379.014160,63.271053 386.425201,50.069565 399.824097,42.061192 
	C403.031647,40.144073 408.214783,39.751644 411.861572,40.813599 
	C416.146851,42.061485 418.019806,46.602005 418.006714,51.376991 
	C417.982544,60.197727 417.950592,69.018929 418.015289,77.839256 
	C418.069275,85.202805 421.603394,90.526917 428.175934,93.610634 
	C434.012970,96.349251 441.035767,94.818924 445.918182,89.483383 
	C451.326447,83.573174 456.182465,77.161407 461.465851,71.131844 
	C465.190247,66.881477 469.512878,62.940578 475.710999,64.414261 
	C481.558502,65.804588 484.335022,70.333397 484.815094,76.848373 
	C483.414307,82.012451 482.312103,86.538902 480.978729,90.996216 
	C475.759644,108.443321 468.014618,124.428955 454.980072,137.596924 
	C428.143921,164.707794 383.414093,154.344894 367.691254,123.298027 
	C365.529633,119.029617 363.993500,114.444443 362.167816,110.005920 
z"/>
<path fill="#FF9839" opacity="1.000000" stroke="none" 
	d="
M362.090118,110.441727 
	C363.993500,114.444443 365.529633,119.029617 367.691254,123.298027 
	C383.414093,154.344894 428.143921,164.707794 454.980072,137.596924 
	C468.014618,124.428955 475.759644,108.443321 480.978729,90.996216 
	C482.312103,86.538902 483.414307,82.012451 484.873230,77.239288 
	C485.410156,84.143494 486.686554,91.453354 485.783539,98.483238 
	C483.690857,114.773491 478.935303,130.414780 471.019806,144.944931 
	C464.116119,157.617676 455.601532,169.244232 442.396545,175.535751 
	C433.952362,179.559006 424.258392,180.959137 413.412354,184.018204 
	C410.096741,191.580154 405.883850,201.188492 401.017700,210.876770 
	C389.861847,203.297546 379.359314,195.638367 368.856750,187.979187 
	C371.786865,180.972427 374.717010,173.965668 377.146332,168.156403 
	C372.259735,159.130203 366.415375,151.040359 363.405609,142.006149 
	C360.460449,133.166016 359.461212,123.404877 361.957245,113.865303 
	C362.202332,112.928688 362.004639,111.876221 362.090118,110.441727 
z"/>
<path fill="#FF9839" opacity="1.000000" stroke="none" 
	d="
M28.455963,77.225174 
	C29.932775,80.599312 31.136301,84.186996 32.158314,87.825676 
	C37.342133,106.281593 44.786118,123.475296 58.717808,137.265869 
	C78.363266,156.712357 108.377892,158.652924 130.584854,141.901337 
	C140.361496,134.526413 146.985458,125.125885 150.169083,113.292511 
	C150.422958,112.348885 150.973297,111.485016 151.612900,110.321045 
	C152.836929,119.524864 153.483917,128.853241 151.450439,138.425125 
	C149.079956,149.583130 143.144623,158.397263 136.148438,166.698334 
	C139.115784,173.576828 142.061508,180.405258 144.773865,187.773590 
	C137.863617,192.867004 131.113266,197.317581 124.537231,202.012329 
	C120.543266,204.863693 116.818626,208.092300 112.972992,211.151443 
	C109.082642,202.665802 105.066841,194.234207 101.373314,185.663742 
	C100.161125,182.850998 98.638115,182.054871 95.589867,181.904785 
	C76.231392,180.951645 61.128468,171.969070 50.090378,156.310379 
	C38.524784,139.903381 31.347027,121.624466 29.088219,101.645500 
	C28.184177,93.649345 28.395397,85.527100 28.455963,77.225174 
z"/>
<path fill="#FF870A" opacity="1.000000" stroke="none" 
	d="
M368.543091,188.146759 
	C379.359314,195.638367 389.861847,203.297546 400.695709,211.054321 
	C397.535919,219.653107 394.044830,228.154297 390.593750,236.558105 
	C398.598816,234.094650 406.850372,231.555359 415.487640,229.087006 
	C420.788940,240.215530 425.893188,251.195145 430.511353,262.375549 
	C432.001190,265.982422 432.212524,270.117371 433.004822,274.422211 
	C424.625458,275.893707 416.250061,276.953766 407.467499,278.051392 
	C406.392853,276.785095 405.433594,275.551270 405.101227,274.166931 
	C398.890289,248.296432 384.026672,228.558060 362.396820,213.558914 
	C361.196198,212.726364 360.205017,211.591736 359.012695,210.270477 
	C362.015839,202.733597 365.122650,195.523972 368.543091,188.146759 
z"/>
<path fill="#FF870A" opacity="1.000000" stroke="none" 
	d="
M112.991302,211.519989 
	C116.818626,208.092300 120.543266,204.863693 124.537231,202.012329 
	C131.113266,197.317581 137.863617,192.867004 144.846924,188.149231 
	C148.435623,195.055923 151.717880,202.126877 155.044708,209.569824 
	C154.124435,211.025696 153.330688,212.358490 152.169464,213.156662 
	C130.036697,228.369980 114.848808,248.432938 108.748611,274.913757 
	C108.531067,275.858124 107.923325,276.712585 107.216751,277.848755 
	C98.596481,277.052795 90.256897,276.017059 81.457047,274.907501 
	C82.258980,260.706940 87.970810,248.148102 94.689354,235.941345 
	C95.800362,233.922775 96.856239,231.873856 98.032654,229.498383 
	C106.594734,231.579361 115.061737,234.000916 123.462173,236.403412 
	C120.048210,228.396500 116.528915,220.142517 112.991302,211.519989 
z"/>
<path fill="#443F43" opacity="1.000000" stroke="none" 
	d="
M350.045227,204.447647 
	C348.956390,206.239914 347.756317,207.561401 346.798889,209.039993 
	C341.986023,216.472794 334.564209,220.167862 327.612061,218.505295 
	C320.121826,216.714005 314.658142,209.751480 314.003998,200.884857 
	C313.785645,197.925400 314.006531,194.933533 313.985107,191.495819 
	C315.591248,184.204529 318.723022,178.207977 324.666718,174.238327 
	C336.332214,166.447250 348.868469,174.514343 350.747925,186.028946 
	C351.696899,191.842636 350.353027,198.030579 350.045227,204.447647 
z"/>
<path fill="#443F43" opacity="1.000000" stroke="none" 
	d="
M199.998627,190.665741 
	C199.836441,195.492508 200.157349,200.059906 199.275192,204.381729 
	C197.773254,211.739792 193.432907,217.189911 185.700012,218.595383 
	C177.928452,220.007904 172.320953,216.027359 167.916016,210.024200 
	C166.748413,208.432953 165.703995,206.751343 164.278625,204.978363 
	C163.629669,198.822250 162.589264,192.731110 163.152527,186.792038 
	C163.947586,178.408905 170.309952,172.459671 178.275055,171.110016 
	C183.816528,170.171051 192.552139,174.986237 195.993805,181.193619 
	C197.589859,184.072220 198.641907,187.252441 199.998627,190.665741 
z"/>
<path fill="#FF9838" opacity="1.000000" stroke="none" 
	d="
M106.086258,285.491699 
	C106.862930,287.750671 107.648796,290.438507 108.254868,293.166321 
	C113.487289,316.716583 124.159172,337.435059 140.026901,355.628021 
	C164.409439,383.583618 194.966980,400.721130 231.394699,406.434235 
	C278.983887,413.897888 321.661591,402.214294 358.669922,370.889038 
	C378.166626,354.386353 392.198059,334.075470 400.815277,310.131958 
	C403.669586,302.201111 405.262970,293.816406 407.635529,285.336731 
	C407.900330,293.047852 407.962494,301.061401 407.898621,309.879578 
	C404.780060,321.830872 402.039673,333.054199 398.683929,344.090424 
	C397.111938,349.260284 394.352539,354.069122 392.131287,359.041595 
	C390.163483,362.132416 388.195679,365.223267 385.902191,368.826355 
	C374.310669,384.796387 361.351440,398.552521 345.476471,409.406555 
	C344.745392,409.906403 344.425354,411.007416 343.913879,411.828430 
	C337.152496,415.244141 330.417877,418.714172 323.624084,422.064117 
	C310.027344,428.768707 295.790497,433.403412 280.656067,435.005554 
	C273.831329,435.727997 267.004974,436.781769 260.162750,436.932556 
	C232.951523,437.532135 207.252548,431.463806 183.194366,418.647247 
	C179.054947,416.442047 174.934906,414.200470 170.355072,411.576874 
	C168.992401,410.263641 168.112183,409.314941 167.163864,408.440063 
	C157.718628,399.726654 148.099350,391.193054 138.883087,382.244263 
	C134.778778,378.259064 131.479797,373.444397 127.815292,369.006226 
	C125.937187,365.903290 124.059097,362.800354 121.997452,359.022339 
	C117.385376,346.582092 112.786827,334.876709 108.620331,323.019470 
	C107.157867,318.857483 106.756180,314.322723 105.870110,309.958191 
	C105.917442,301.951813 105.964775,293.945465 106.086258,285.491699 
z"/>
<path fill="#FF9838" opacity="1.000000" stroke="none" 
	d="
M92.097885,356.840210 
	C84.574913,358.295380 77.668915,361.066711 72.546379,367.003418 
	C63.128830,377.917816 53.962044,389.049683 44.475437,399.902679 
	C41.681496,403.099030 38.390308,405.983856 34.920013,408.435333 
	C30.368259,411.650757 25.279367,412.181641 20.078259,409.601135 
	C14.843594,407.003906 12.945459,401.973816 13.240276,397.044678 
	C13.630169,390.525970 14.727603,383.678070 17.288980,377.733459 
	C23.824074,362.566406 32.621353,348.627075 44.017521,336.549835 
	C51.133526,329.008575 58.341530,321.493744 66.127464,314.674011 
	C69.355873,311.846222 74.201118,310.864319 78.764236,309.488556 
	C81.622223,320.260437 83.824753,330.639771 86.514023,340.891418 
	C87.938667,346.322235 90.209213,351.531128 92.097885,356.840210 
z"/>
<path fill="#FF9838" opacity="1.000000" stroke="none" 
	d="
M434.916595,309.161377 
	C442.427032,310.314789 448.446228,314.140747 453.860413,319.311798 
	C471.402618,336.066315 486.396515,354.693085 496.436615,376.954865 
	C500.010712,384.879730 502.779846,393.097321 499.927582,401.896057 
	C497.132172,410.519348 488.292053,414.256287 480.813263,408.991791 
	C474.528259,404.567657 469.045105,398.714203 464.084534,392.762177 
	C455.148254,382.039764 447.136658,370.439545 435.572784,362.306946 
	C431.865387,359.699615 427.020660,358.709503 422.346436,356.540833 
	C428.049225,340.935791 432.985840,325.462250 434.916595,309.161377 
z"/>
<path fill="#FF9838" opacity="1.000000" stroke="none" 
	d="
M140.110016,418.056061 
	C130.580170,425.131653 124.231987,434.834534 118.038399,444.683502 
	C113.033005,452.642975 108.221947,460.750641 102.764084,468.392181 
	C97.597260,475.626190 88.851112,479.341156 81.178741,473.055237 
	C75.785797,468.636810 74.566299,462.317627 75.233185,456.380463 
	C77.359283,437.452240 85.781693,420.764923 95.739677,404.855225 
	C99.958755,398.114471 104.763527,391.740326 109.695580,385.399597 
	C114.368362,390.875000 118.377220,396.402435 122.997398,401.360199 
	C128.424393,407.183807 134.382324,412.512665 140.110016,418.056061 
z"/>
<path fill="#FF9838" opacity="1.000000" stroke="none" 
	d="
M404.077209,384.928589 
	C418.902893,402.707031 429.606873,422.813080 436.653107,444.746490 
	C438.413116,450.225098 437.882538,456.517059 437.952942,462.440613 
	C438.034363,469.290039 434.101440,473.800934 427.914429,475.828583 
	C422.173737,477.709930 415.079956,474.239471 411.065887,468.153290 
	C403.647766,456.905945 396.728119,445.310089 388.897522,434.362488 
	C384.765717,428.586060 379.150818,423.870453 374.237671,418.082306 
	C380.383179,411.615814 386.755768,405.984253 392.524139,399.790009 
	C396.783356,395.216339 400.254791,389.909027 404.077209,384.928589 
z"/>
<path fill="#FF870A" opacity="1.000000" stroke="none" 
	d="
M92.511078,356.911560 
	C90.209213,351.531128 87.938667,346.322235 86.514023,340.891418 
	C83.824753,330.639771 81.622223,320.260437 79.151154,309.547546 
	C87.797798,307.501221 96.429642,308.386993 105.454422,309.972778 
	C106.756180,314.322723 107.157867,318.857483 108.620331,323.019470 
	C112.786827,334.876709 117.385376,346.582092 121.850166,358.700684 
	C115.969109,358.039215 110.083084,356.689087 104.122955,356.132996 
	C100.448494,355.790161 96.661018,356.658417 92.511078,356.911560 
z"/>
<path fill="#FF870A" opacity="1.000000" stroke="none" 
	d="
M434.485962,309.089050 
	C432.985840,325.462250 428.049225,340.935791 421.948242,356.470886 
	C412.022369,354.516205 402.545288,357.535339 392.541809,359.025452 
	C394.352539,354.069122 397.111938,349.260284 398.683929,344.090424 
	C402.039673,333.054199 404.780060,321.830872 407.954041,310.323700 
	C416.775482,309.647736 425.415405,309.332245 434.485962,309.089050 
z"/>
<path fill="#FF870A" opacity="1.000000" stroke="none" 
	d="
M140.435425,417.910492 
	C134.382324,412.512665 128.424393,407.183807 122.997398,401.360199 
	C118.377220,396.402435 114.368362,390.875000 110.011719,385.257812 
	C114.173622,378.033173 120.024765,372.929413 127.504196,369.142883 
	C131.479797,373.444397 134.778778,378.259064 138.883087,382.244263 
	C148.099350,391.193054 157.718628,399.726654 167.163864,408.440063 
	C168.112183,409.314941 168.992401,410.263641 169.995438,411.503235 
	C159.922806,411.887726 149.853714,412.415070 140.435425,417.910492 
z"/>
<path fill="#FF870A" opacity="1.000000" stroke="none" 
	d="
M403.942139,384.612244 
	C400.254791,389.909027 396.783356,395.216339 392.524139,399.790009 
	C386.755768,405.984253 380.383179,411.615814 374.081787,417.773560 
	C364.880646,412.840424 355.021576,411.664551 344.382141,411.904236 
	C344.425354,411.007416 344.745392,409.906403 345.476471,409.406555 
	C361.351440,398.552521 374.310669,384.796387 385.876129,369.169373 
	C393.599945,372.315430 399.096802,377.852386 403.942139,384.612244 
z"/>
<path fill="#F66801" opacity="1.000000" stroke="none" 
	d="
M285.696686,239.253677 
	C285.866608,237.017303 285.897919,235.185608 286.020325,233.360016 
	C286.303894,229.132156 288.524506,226.449692 292.748199,226.007019 
	C297.164124,225.544174 300.020172,227.593262 301.097137,232.074005 
	C303.563538,242.336136 297.519867,255.928024 287.164154,262.557526 
	C274.827301,270.455383 261.077637,270.937622 247.128021,269.418762 
	C236.967178,268.312408 227.611755,265.053528 220.531006,257.143372 
	C214.301010,250.183624 211.667023,241.966385 212.867706,232.733521 
	C213.503372,227.845444 216.624573,225.482376 221.093903,225.982391 
	C225.583603,226.484680 227.749771,229.253983 228.004501,233.702560 
	C228.680191,245.502808 232.997314,250.719421 244.626373,253.297348 
	C253.523468,255.269653 262.505524,255.176971 271.318054,252.832886 
	C278.269592,250.983795 283.760925,247.216537 285.696686,239.253677 
z"/>
</svg>